<svg width="26" height="24" viewBox="0 0 26 24" fill="none" xmlns="http://www.w3.org/2000/svg">
<path d="M26 22.875V8.625C26 8.52554 25.9597 8.43016 25.888 8.35983C25.8163 8.28951 25.7191 8.25 25.6176 8.25C25.5162 8.25 25.419 8.28951 25.3473 8.35983C25.2756 8.43016 25.2353 8.52554 25.2353 8.625V22.875C25.2353 22.9745 25.195 23.0698 25.1233 23.1402C25.0516 23.2105 24.9543 23.25 24.8529 23.25H1.14706C1.04565 23.25 0.9484 23.2105 0.876694 23.1402C0.804989 23.0698 0.764706 22.9745 0.764706 22.875V8.625C0.764706 8.52554 0.724422 8.43016 0.652717 8.35983C0.581012 8.28951 0.483759 8.25 0.382353 8.25C0.280947 8.25 0.183694 8.28951 0.111989 8.35983C0.0402835 8.43016 0 8.52554 0 8.625L0 22.875C0 23.4952 0.514647 24 1.14706 24H24.8529C25.4854 24 26 23.4952 26 22.875Z" fill="#8C8C8C"/>
<path d="M3.44118 17.25C3.33977 17.25 3.24252 17.2895 3.17081 17.3598C3.09911 17.4302 3.05882 17.5255 3.05882 17.625C3.05882 17.7245 3.09911 17.8198 3.17081 17.8902C3.24252 17.9605 3.33977 18 3.44118 18H4.58824V20.625C4.58824 20.7245 4.62852 20.8198 4.70022 20.8902C4.77193 20.9605 4.86918 21 4.97059 21C5.07199 21 5.16925 20.9605 5.24095 20.8902C5.31266 20.8198 5.35294 20.7245 5.35294 20.625V18H9.94118V20.625C9.94118 20.7245 9.98146 20.8198 10.0532 20.8902C10.1249 20.9605 10.2221 21 10.3235 21C10.4249 21 10.5222 20.9605 10.5939 20.8902C10.6656 20.8198 10.7059 20.7245 10.7059 20.625V18H15.2941V20.625C15.2941 20.7245 15.3344 20.8198 15.4061 20.8902C15.4778 20.9605 15.5751 21 15.6765 21C15.7779 21 15.8751 20.9605 15.9468 20.8902C16.0185 20.8198 16.0588 20.7245 16.0588 20.625V18H20.6471V20.625C20.6471 20.7245 20.6873 20.8198 20.759 20.8902C20.8308 20.9605 20.928 21 21.0294 21C21.1308 21 21.2281 20.9605 21.2998 20.8902C21.3715 20.8198 21.4118 20.7245 21.4118 20.625V18H22.5588C22.6602 18 22.7575 17.9605 22.8292 17.8902C22.9009 17.8198 22.9412 17.7245 22.9412 17.625C22.9412 17.5255 22.9009 17.4302 22.8292 17.3598C22.7575 17.2895 22.6602 17.25 22.5588 17.25H21.4118V13.5H22.5588C22.6602 13.5 22.7575 13.4605 22.8292 13.3902C22.9009 13.3198 22.9412 13.2245 22.9412 13.125C22.9412 13.0255 22.9009 12.9302 22.8292 12.8598C22.7575 12.7895 22.6602 12.75 22.5588 12.75H21.4118V9.375C21.4118 9.27554 21.3715 9.18016 21.2998 9.10983C21.2281 9.03951 21.1308 9 21.0294 9C20.928 9 20.8308 9.03951 20.759 9.10983C20.6873 9.18016 20.6471 9.27554 20.6471 9.375V12.75H16.0588V9.375C16.0588 9.27554 16.0185 9.18016 15.9468 9.10983C15.8751 9.03951 15.7779 9 15.6765 9C15.5751 9 15.4778 9.03951 15.4061 9.10983C15.3344 9.18016 15.2941 9.27554 15.2941 9.375V12.75H10.7059V9.375C10.7059 9.27554 10.6656 9.18016 10.5939 9.10983C10.5222 9.03951 10.4249 9 10.3235 9C10.2221 9 10.1249 9.03951 10.0532 9.10983C9.98146 9.18016 9.94118 9.27554 9.94118 9.375V12.75H5.35294V9.375C5.35294 9.27554 5.31266 9.18016 5.24095 9.10983C5.16925 9.03951 5.07199 9 4.97059 9C4.86918 9 4.77193 9.03951 4.70022 9.10983C4.62852 9.18016 4.58824 9.27554 4.58824 9.375V12.75H3.44118C3.33977 12.75 3.24252 12.7895 3.17081 12.8598C3.09911 12.9302 3.05882 13.0255 3.05882 13.125C3.05882 13.2245 3.09911 13.3198 3.17081 13.3902C3.24252 13.4605 3.33977 13.5 3.44118 13.5H4.58824V17.25H3.44118ZM20.6471 13.5V17.25H16.0588V13.5H20.6471ZM15.2941 13.5V17.25H10.7059V13.5H15.2941ZM5.35294 13.5H9.94118V17.25H5.35294V13.5ZM21.7941 2.25H25.0441C25.1106 2.25 25.2353 2.25 25.2353 2.625V6H0.764706V2.625C0.764706 2.52554 0.804989 2.43016 0.876694 2.35984C0.9484 2.28951 1.04565 2.25 1.14706 2.25H4.20588C4.30729 2.25 4.40454 2.21049 4.47625 2.14016C4.54795 2.06984 4.58824 1.97446 4.58824 1.875C4.58824 1.77554 4.54795 1.68016 4.47625 1.60984C4.40454 1.53951 4.30729 1.5 4.20588 1.5H1.14706C0.514647 1.5 0 2.00475 0 2.625V6.375C0 6.47446 0.0402835 6.56984 0.111989 6.64017C0.183694 6.71049 0.280947 6.75 0.382353 6.75H25.6176C25.7191 6.75 25.8163 6.71049 25.888 6.64017C25.9597 6.56984 26 6.47446 26 6.375V2.625C26 1.7955 25.506 1.5 25.0441 1.5H21.7941C21.6927 1.5 21.5955 1.53951 21.5238 1.60984C21.452 1.68016 21.4118 1.77554 21.4118 1.875C21.4118 1.97446 21.452 2.06984 21.5238 2.14016C21.5955 2.21049 21.6927 2.25 21.7941 2.25Z" fill="#8C8C8C"/>
<path d="M17.2059 2.25C17.3073 2.25 17.4046 2.21049 17.4763 2.14016C17.548 2.06984 17.5883 1.97446 17.5883 1.875C17.5883 1.77554 17.548 1.68016 17.4763 1.60984C17.4046 1.53951 17.3073 1.5 17.2059 1.5H8.79415C8.69274 1.5 8.59549 1.53951 8.52378 1.60984C8.45208 1.68016 8.41179 1.77554 8.41179 1.875C8.41179 1.97446 8.45208 2.06984 8.52378 2.14016C8.59549 2.21049 8.69274 2.25 8.79415 2.25H17.2059ZM6.88238 3.375V0.375C6.88238 0.275544 6.8421 0.180161 6.77039 0.109835C6.69869 0.0395088 6.60144 0 6.50003 0C6.39862 0 6.30137 0.0395088 6.22966 0.109835C6.15796 0.180161 6.11768 0.275544 6.11768 0.375V3.375C6.11768 3.47446 6.15796 3.56984 6.22966 3.64016C6.30137 3.71049 6.39862 3.75 6.50003 3.75C6.60144 3.75 6.69869 3.71049 6.77039 3.64016C6.8421 3.56984 6.88238 3.47446 6.88238 3.375ZM19.5 3.75C19.6014 3.75 19.6987 3.71049 19.7704 3.64016C19.8421 3.56984 19.8824 3.47446 19.8824 3.375V0.375C19.8824 0.275544 19.8421 0.180161 19.7704 0.109835C19.6987 0.0395088 19.6014 0 19.5 0C19.3986 0 19.3014 0.0395088 19.2297 0.109835C19.158 0.180161 19.1177 0.275544 19.1177 0.375V3.375C19.1177 3.47446 19.158 3.56984 19.2297 3.64016C19.3014 3.71049 19.3986 3.75 19.5 3.75Z" fill="#8C8C8C"/>
</svg>
