<svg xmlns="http://www.w3.org/2000/svg" width="15" height="16" viewBox="0 0 15 16" fill="none">
  <g clip-path="url(#clip0_4069_1595)">
    <path d="M7.44184 2.38986C7.46022 2.37979 7.48088 2.37462 7.50184 2.37486C7.52248 2.37478 7.5428 2.37994 7.5609 2.38986C7.58234 2.40272 7.59985 2.4212 7.61153 2.4433L14.04 13.3811C14.0737 13.4374 14.0728 13.4974 14.0418 13.5527C14.0299 13.5754 14.0125 13.5947 13.9912 13.6089C13.9727 13.6203 13.9511 13.6259 13.9293 13.6249H1.07434C1.05258 13.6259 1.03101 13.6204 1.01246 13.6089C0.99114 13.5947 0.973731 13.5754 0.96184 13.5527C0.94639 13.5267 0.938393 13.4969 0.938724 13.4666C0.939055 13.4364 0.9477 13.4068 0.963715 13.3811L7.39121 2.4433C7.40293 2.42123 7.42043 2.40276 7.44184 2.38986ZM8.42059 1.96799C8.32779 1.80633 8.19397 1.67202 8.03266 1.57862C7.87134 1.48522 7.68824 1.43604 7.50184 1.43604C7.31544 1.43604 7.13233 1.48522 6.97102 1.57862C6.80971 1.67202 6.67589 1.80633 6.58309 1.96799L0.154652 12.9058C-0.273785 13.6352 0.239965 14.5624 1.0734 14.5624H13.9293C14.7628 14.5624 15.2775 13.6342 14.8481 12.9058L8.42059 1.96799Z" fill="#EF4800"/>
    <path d="M6.56433 11.7498C6.56433 11.6267 6.58858 11.5048 6.63569 11.391C6.68281 11.2773 6.75186 11.1739 6.83892 11.0869C6.92597 10.9998 7.02932 10.9308 7.14307 10.8837C7.25681 10.8366 7.37872 10.8123 7.50183 10.8123C7.62495 10.8123 7.74685 10.8366 7.8606 10.8837C7.97434 10.9308 8.07769 10.9998 8.16474 11.0869C8.2518 11.1739 8.32085 11.2773 8.36797 11.391C8.41508 11.5048 8.43933 11.6267 8.43933 11.7498C8.43933 11.9984 8.34056 12.2369 8.16474 12.4127C7.98893 12.5885 7.75047 12.6873 7.50183 12.6873C7.25319 12.6873 7.01473 12.5885 6.83892 12.4127C6.6631 12.2369 6.56433 11.9984 6.56433 11.7498ZM6.65621 6.12012C6.64372 6.00184 6.65624 5.88227 6.69296 5.76914C6.72967 5.65602 6.78976 5.55188 6.86932 5.46348C6.94888 5.37508 7.04614 5.30439 7.15478 5.25601C7.26342 5.20762 7.38103 5.18262 7.49996 5.18262C7.61889 5.18262 7.73649 5.20762 7.84513 5.25601C7.95378 5.30439 8.05103 5.37508 8.13059 5.46348C8.21016 5.55188 8.27024 5.65602 8.30696 5.76914C8.34367 5.88227 8.35619 6.00184 8.34371 6.12012L8.01558 9.40793C8.00456 9.53709 7.94546 9.65741 7.84998 9.74509C7.7545 9.83277 7.62959 9.88142 7.49996 9.88142C7.37033 9.88142 7.24542 9.83277 7.14994 9.74509C7.05445 9.65741 6.99536 9.53709 6.98433 9.40793L6.65621 6.12012Z" fill="#EF4800"/>
  </g>
  <defs>
    <clipPath id="clip0_4069_1595">
      <rect width="15" height="15" fill="white" transform="translate(0 0.5)"/>
    </clipPath>
  </defs>
</svg>