<svg width="150" height="150" viewBox="0 0 150 150" fill="none" xmlns="http://www.w3.org/2000/svg">
    <path d="M75 112.5C77.125 112.5 78.9075 111.78 80.3475 110.34C81.7825 108.905 82.5 107.125 82.5 105C82.5 102.875 81.7825 101.092 80.3475 99.6525C78.9075 98.2175 77.125 97.5 75 97.5C72.875 97.5 71.095 98.2175 69.66 99.6525C68.22 101.092 67.5 102.875 67.5 105C67.5 107.125 68.22 108.905 69.66 110.34C71.095 111.78 72.875 112.5 75 112.5ZM75 82.5C77.125 82.5 78.9075 81.78 80.3475 80.34C81.7825 78.905 82.5 77.125 82.5 75V45C82.5 42.875 81.7825 41.0925 80.3475 39.6525C78.9075 38.2175 77.125 37.5 75 37.5C72.875 37.5 71.095 38.2175 69.66 39.6525C68.22 41.0925 67.5 42.875 67.5 45V75C67.5 77.125 68.22 78.905 69.66 80.34C71.095 81.78 72.875 82.5 75 82.5ZM75 150C64.625 150 54.875 148.03 45.75 144.09C36.625 140.155 28.6875 134.812 21.9375 128.062C15.1875 121.313 9.845 113.375 5.91 104.25C1.97 95.125 0 85.375 0 75C0 64.625 1.97 54.875 5.91 45.75C9.845 36.625 15.1875 28.6875 21.9375 21.9375C28.6875 15.1875 36.625 9.8425 45.75 5.9025C54.875 1.9675 64.625 0 75 0C85.375 0 95.125 1.9675 104.25 5.9025C113.375 9.8425 121.313 15.1875 128.062 21.9375C134.812 28.6875 140.155 36.625 144.09 45.75C148.03 54.875 150 64.625 150 75C150 85.375 148.03 95.125 144.09 104.25C140.155 113.375 134.812 121.313 128.062 128.062C121.313 134.812 113.375 140.155 104.25 144.09C95.125 148.03 85.375 150 75 150ZM75 135C91.75 135 105.937 129.188 117.562 117.562C129.188 105.937 135 91.75 135 75C135 58.25 129.188 44.0625 117.562 32.4375C105.937 20.8125 91.75 15 75 15C58.25 15 44.0625 20.8125 32.4375 32.4375C20.8125 44.0625 15 58.25 15 75C15 91.75 20.8125 105.937 32.4375 117.562C44.0625 129.188 58.25 135 75 135Z" fill="#D41B2C" fill-opacity="0.8"/>
</svg>
