<svg xmlns="http://www.w3.org/2000/svg" width="185" height="185" viewBox="0 0 185 185" fill="none">
    <path d="M92.5 0C80.3527 0 68.3244 2.39258 57.1018 7.04114C45.8792 11.6897 35.682 18.5032 27.0926 27.0926C9.74551 44.4397 0 67.9675 0 92.5C0 117.033 9.74551 140.56 27.0926 157.907C35.682 166.497 45.8792 173.31 57.1018 177.959C68.3244 182.607 80.3527 185 92.5 185C117.033 185 140.56 175.254 157.907 157.907C175.254 140.56 185 117.033 185 92.5C185 80.3527 182.607 68.3244 177.959 57.1018C173.31 45.8792 166.497 35.682 157.907 27.0926C149.318 18.5032 139.121 11.6897 127.898 7.04114C116.676 2.39258 104.647 0 92.5 0ZM92.5 59.1075C107.425 68.8042 124.837 73.9762 142.635 74C149.85 74 156.788 73.1675 163.447 71.595C165.39 78.1625 166.5 85.1925 166.5 92.5C166.5 133.292 133.292 166.5 92.5 166.5C64.75 166.5 40.6075 151.145 27.75 128.482L43.9375 111V101.75C43.9375 98.6834 45.1557 95.7425 47.3241 93.5741C49.4925 91.4057 52.4334 90.1875 55.5 90.1875C58.5666 90.1875 61.5075 91.4057 63.6759 93.5741C65.8443 95.7425 67.0625 98.6834 67.0625 101.75V111H92.5M129.5 90.1875C126.433 90.1875 123.492 91.4057 121.324 93.5741C119.156 95.7425 117.938 98.6834 117.938 101.75C117.938 104.817 119.156 107.758 121.324 109.926C123.492 112.094 126.433 113.312 129.5 113.312C132.567 113.312 135.508 112.094 137.676 109.926C139.844 107.758 141.062 104.817 141.062 101.75C141.062 98.6834 139.844 95.7425 137.676 93.5741C135.508 91.4057 132.567 90.1875 129.5 90.1875Z" fill="black"/>
</svg>