<svg width="27" height="27" viewBox="0 0 27 27" fill="none" xmlns="http://www.w3.org/2000/svg">
<path fill-rule="evenodd" clip-rule="evenodd" d="M7.29617 20.732C11.9165 20.057 15.0978 20.115 19.7243 20.7556C20.0593 20.8042 20.3655 20.9723 20.5862 21.229C20.8069 21.4857 20.9273 21.8136 20.9251 22.1522C20.9251 22.4762 20.8137 22.7907 20.6126 23.0364C20.262 23.4648 19.9028 23.8861 19.5353 24.3H21.3179C21.43 24.1664 21.5427 24.03 21.6568 23.8917C22.0572 23.4007 22.2756 22.7864 22.2751 22.1529C22.2751 20.786 21.2774 19.6081 19.9092 19.4191C15.1734 18.7637 11.8632 18.7009 7.1011 19.3968C5.7187 19.5987 4.7251 20.7948 4.7251 22.1711C4.7251 22.782 4.92422 23.3861 5.30155 23.8755C5.41292 24.0199 5.52295 24.1617 5.6323 24.3007H7.37177C7.02983 23.8913 6.69631 23.475 6.37142 23.052C6.17835 22.7987 6.07419 22.4889 6.0751 22.1704C6.0751 21.4434 6.59755 20.8339 7.29617 20.732ZM13.5001 14.175C14.032 14.175 14.5586 14.0703 15.05 13.8667C15.5413 13.6632 15.9878 13.3649 16.3639 12.9888C16.74 12.6127 17.0383 12.1663 17.2418 11.6749C17.4453 11.1835 17.5501 10.6569 17.5501 10.125C17.5501 9.59318 17.4453 9.06654 17.2418 8.57517C17.0383 8.0838 16.74 7.63733 16.3639 7.26125C15.9878 6.88518 15.5413 6.58686 15.05 6.38332C14.5586 6.17979 14.032 6.07504 13.5001 6.07504C12.426 6.07504 11.3958 6.50173 10.6363 7.26125C9.87679 8.02078 9.4501 9.05091 9.4501 10.125C9.4501 11.1992 9.87679 12.2293 10.6363 12.9888C11.3958 13.7483 12.426 14.175 13.5001 14.175ZM13.5001 15.525C14.9323 15.525 16.3058 14.9561 17.3185 13.9434C18.3312 12.9307 18.9001 11.5572 18.9001 10.125C18.9001 8.69287 18.3312 7.31936 17.3185 6.30666C16.3058 5.29396 14.9323 4.72504 13.5001 4.72504C12.0679 4.72504 10.6944 5.29396 9.68172 6.30666C8.66902 7.31936 8.1001 8.69287 8.1001 10.125C8.1001 11.5572 8.66902 12.9307 9.68172 13.9434C10.6944 14.9561 12.0679 15.525 13.5001 15.525Z" fill="white"/>
<path fill-rule="evenodd" clip-rule="evenodd" d="M13.5 25.65C20.2102 25.65 25.65 20.2102 25.65 13.5C25.65 6.78982 20.2102 1.35 13.5 1.35C6.78982 1.35 1.35 6.78982 1.35 13.5C1.35 20.2102 6.78982 25.65 13.5 25.65ZM13.5 27C20.9561 27 27 20.9561 27 13.5C27 6.04395 20.9561 0 13.5 0C6.04395 0 0 6.04395 0 13.5C0 20.9561 6.04395 27 13.5 27Z" fill="white"/>
</svg>
