<svg width="150" height="150" viewBox="0 0 174 174" fill="none" xmlns="http://www.w3.org/2000/svg">
    <path d="M76.125 116.439L48.9375 89.2457L56.6207 81.5625L76.125 101.061L117.368 59.8125L125.062 67.5066L76.125 116.439Z" fill="#65BA63"/>
    <path d="M87 10.875C71.9439 10.875 57.2259 15.3397 44.7072 23.7044C32.1886 32.0691 22.4314 43.9582 16.6697 57.8682C10.908 71.7783 9.40045 87.0844 12.3378 101.851C15.2751 116.618 22.5253 130.182 33.1715 140.829C43.8178 151.475 57.382 158.725 72.1488 161.662C86.9156 164.6 102.222 163.092 116.132 157.33C130.042 151.569 141.931 141.811 150.296 129.293C158.66 116.774 163.125 102.056 163.125 87C163.125 66.8104 155.105 47.4477 140.829 33.1715C126.552 18.8953 107.19 10.875 87 10.875ZM87 152.25C74.0948 152.25 61.4794 148.423 50.7491 141.253C40.0188 134.084 31.6555 123.893 26.7169 111.97C21.7783 100.047 20.4861 86.9276 23.0038 74.2704C25.5215 61.6131 31.7359 49.9867 40.8613 40.8613C49.9867 31.7359 61.6131 25.5214 74.2704 23.0038C86.9277 20.4861 100.047 21.7782 111.97 26.7169C123.893 31.6555 134.084 40.0187 141.253 50.749C148.423 61.4794 152.25 74.0948 152.25 87C152.25 104.305 145.375 120.902 133.139 133.139C120.902 145.375 104.305 152.25 87 152.25Z" fill="#65BA63"/>
</svg>
